<mxfile host="app.diagrams.net" agent="Mozilla/5.0 (Windows NT 10.0; Win64; x64; rv:135.0) Gecko/20100101 Firefox/135.0" version="26.0.11">
  <diagram name="Страница — 1" id="lzzeQARQWgGWfcK-ib9I">
    <mxGraphModel dx="1562" dy="818" grid="1" gridSize="10" guides="1" tooltips="1" connect="1" arrows="1" fold="1" page="1" pageScale="1" pageWidth="827" pageHeight="1169" math="0" shadow="0">
      <root>
        <mxCell id="0" />
        <mxCell id="1" parent="0" />
        <mxCell id="OIiy3n38Z5OrMYCdZU4e-2" value="&lt;span class=&quot;hljs-keyword&quot;&gt;Start&lt;/span&gt;" style="rounded=0;whiteSpace=wrap;html=1;" vertex="1" parent="1">
          <mxGeometry x="345" width="120" height="60" as="geometry" />
        </mxCell>
        <mxCell id="OIiy3n38Z5OrMYCdZU4e-8" value="&#xa;&lt;span class=&quot;hljs-selector-attr&quot;&gt;[Get current hour]&lt;/span&gt;&#xa;&#xa;" style="rounded=0;whiteSpace=wrap;html=1;" vertex="1" parent="1">
          <mxGeometry x="245" y="70" width="320" height="50" as="geometry" />
        </mxCell>
        <mxCell id="OIiy3n38Z5OrMYCdZU4e-60" value="" style="edgeStyle=orthogonalEdgeStyle;rounded=0;orthogonalLoop=1;jettySize=auto;html=1;" edge="1" parent="1" source="OIiy3n38Z5OrMYCdZU4e-12" target="OIiy3n38Z5OrMYCdZU4e-47">
          <mxGeometry relative="1" as="geometry" />
        </mxCell>
        <mxCell id="OIiy3n38Z5OrMYCdZU4e-62" value="" style="edgeStyle=orthogonalEdgeStyle;rounded=0;orthogonalLoop=1;jettySize=auto;html=1;" edge="1" parent="1" source="OIiy3n38Z5OrMYCdZU4e-12" target="OIiy3n38Z5OrMYCdZU4e-15">
          <mxGeometry relative="1" as="geometry" />
        </mxCell>
        <mxCell id="OIiy3n38Z5OrMYCdZU4e-12" value="&lt;div style=&quot;color: rgb(205, 211, 222); background-color: rgb(27, 43, 52); font-family: Consolas, &amp;quot;Courier New&amp;quot;, monospace; font-size: 14px; line-height: 19px; white-space: pre;&quot;&gt;&lt;div&gt;&lt;span style=&quot;color: #cdd3de;&quot;&gt;hour &lt;/span&gt;&lt;span style=&quot;color: #5fb3b3;&quot;&gt;&amp;gt;=&lt;/span&gt;&lt;span style=&quot;color: #cdd3de;&quot;&gt; &lt;/span&gt;&lt;span style=&quot;color: #f99157;&quot;&gt;5&lt;/span&gt;&lt;span style=&quot;color: #cdd3de;&quot;&gt; &lt;/span&gt;&lt;span style=&quot;color: #5fb3b3;&quot;&gt;&amp;amp;&amp;amp;&lt;/span&gt;&lt;span style=&quot;color: #cdd3de;&quot;&gt; hour &lt;/span&gt;&lt;span style=&quot;color: #5fb3b3;&quot;&gt;&amp;lt;&lt;/span&gt;&lt;span style=&quot;color: #cdd3de;&quot;&gt; &lt;/span&gt;&lt;span style=&quot;color: #f99157;&quot;&gt;12&lt;/span&gt;&lt;/div&gt;&lt;/div&gt;" style="rounded=0;whiteSpace=wrap;html=1;fontStyle=1" vertex="1" parent="1">
          <mxGeometry x="42.5" y="180" width="320" height="50" as="geometry" />
        </mxCell>
        <mxCell id="OIiy3n38Z5OrMYCdZU4e-14" value="&lt;div style=&quot;color: #cdd3de;background-color: #1b2b34;font-family: Consolas, &#39;Courier New&#39;, monospace;font-weight: normal;font-size: 14px;line-height: 19px;white-space: pre;&quot;&gt;&lt;div&gt;&lt;span style=&quot;color: #c594c5;&quot;&gt;else&lt;/span&gt;&lt;span style=&quot;color: #cdd3de;&quot;&gt; &lt;/span&gt;&lt;span style=&quot;color: #c594c5;&quot;&gt;if&lt;/span&gt;&lt;/div&gt;&lt;/div&gt;" style="whiteSpace=wrap;html=1;aspect=fixed;" vertex="1" parent="1">
          <mxGeometry x="381.25" y="182.5" width="68.75" height="68.75" as="geometry" />
        </mxCell>
        <mxCell id="OIiy3n38Z5OrMYCdZU4e-65" style="edgeStyle=orthogonalEdgeStyle;rounded=0;orthogonalLoop=1;jettySize=auto;html=1;entryX=0.5;entryY=0;entryDx=0;entryDy=0;" edge="1" parent="1" source="OIiy3n38Z5OrMYCdZU4e-15" target="OIiy3n38Z5OrMYCdZU4e-43">
          <mxGeometry relative="1" as="geometry" />
        </mxCell>
        <mxCell id="OIiy3n38Z5OrMYCdZU4e-15" value="NO" style="whiteSpace=wrap;html=1;aspect=fixed;direction=south;" vertex="1" parent="1">
          <mxGeometry x="170" y="250" width="50" height="50" as="geometry" />
        </mxCell>
        <mxCell id="OIiy3n38Z5OrMYCdZU4e-30" value="&lt;div style=&quot;color: #cdd3de;background-color: #1b2b34;font-family: Consolas, &#39;Courier New&#39;, monospace;font-weight: normal;font-size: 14px;line-height: 19px;white-space: pre;&quot;&gt;&lt;div&gt;&lt;span style=&quot;color: #99c794;&quot;&gt;Good afternoon!&lt;/span&gt;&lt;/div&gt;&lt;/div&gt;" style="rounded=0;whiteSpace=wrap;html=1;" vertex="1" parent="1">
          <mxGeometry x="500" y="375" width="147" height="40" as="geometry" />
        </mxCell>
        <mxCell id="OIiy3n38Z5OrMYCdZU4e-43" value="&lt;div style=&quot;color: #cdd3de;background-color: #1b2b34;font-family: Consolas, &#39;Courier New&#39;, monospace;font-weight: normal;font-size: 14px;line-height: 19px;white-space: pre;&quot;&gt;&lt;div&gt;&lt;span style=&quot;color: #c594c5;&quot;&gt;else&lt;/span&gt;&lt;span style=&quot;color: #cdd3de;&quot;&gt; &lt;/span&gt;&lt;span style=&quot;color: #c594c5;&quot;&gt;if&lt;/span&gt;&lt;/div&gt;&lt;/div&gt;" style="rounded=0;whiteSpace=wrap;html=1;" vertex="1" parent="1">
          <mxGeometry x="362.5" y="320" width="75" height="40" as="geometry" />
        </mxCell>
        <mxCell id="OIiy3n38Z5OrMYCdZU4e-59" style="edgeStyle=orthogonalEdgeStyle;rounded=0;orthogonalLoop=1;jettySize=auto;html=1;entryX=0.5;entryY=0;entryDx=0;entryDy=0;" edge="1" parent="1" source="OIiy3n38Z5OrMYCdZU4e-47" target="OIiy3n38Z5OrMYCdZU4e-12">
          <mxGeometry relative="1" as="geometry" />
        </mxCell>
        <mxCell id="OIiy3n38Z5OrMYCdZU4e-47" value="&lt;div style=&quot;color: #cdd3de;background-color: #1b2b34;font-family: Consolas, &#39;Courier New&#39;, monospace;font-weight: normal;font-size: 14px;line-height: 19px;white-space: pre;&quot;&gt;&lt;div&gt;&lt;span style=&quot;color: #c594c5;&quot;&gt;if&lt;/span&gt;&lt;span style=&quot;color: #cdd3de;&quot;&gt; &lt;/span&gt;&lt;/div&gt;&lt;/div&gt;" style="rounded=0;whiteSpace=wrap;html=1;" vertex="1" parent="1">
          <mxGeometry x="372.5" y="130" width="65" height="40" as="geometry" />
        </mxCell>
        <mxCell id="OIiy3n38Z5OrMYCdZU4e-69" style="edgeStyle=orthogonalEdgeStyle;rounded=0;orthogonalLoop=1;jettySize=auto;html=1;exitX=1;exitY=0.5;exitDx=0;exitDy=0;entryX=0;entryY=0.5;entryDx=0;entryDy=0;" edge="1" parent="1" source="OIiy3n38Z5OrMYCdZU4e-63" target="OIiy3n38Z5OrMYCdZU4e-68">
          <mxGeometry relative="1" as="geometry" />
        </mxCell>
        <mxCell id="OIiy3n38Z5OrMYCdZU4e-63" value="&lt;div style=&quot;color: #cdd3de;background-color: #1b2b34;font-family: Consolas, &#39;Courier New&#39;, monospace;font-weight: normal;font-size: 14px;line-height: 19px;white-space: pre;&quot;&gt;&lt;div&gt;&lt;span style=&quot;color: #5fb3b3;&quot;&gt;(&lt;/span&gt;&lt;span style=&quot;color: #cdd3de;&quot;&gt;hour &lt;/span&gt;&lt;span style=&quot;color: #5fb3b3;&quot;&gt;&amp;gt;=&lt;/span&gt;&lt;span style=&quot;color: #cdd3de;&quot;&gt; &lt;/span&gt;&lt;span style=&quot;color: #f99157;&quot;&gt;12&lt;/span&gt;&lt;span style=&quot;color: #cdd3de;&quot;&gt; &lt;/span&gt;&lt;span style=&quot;color: #5fb3b3;&quot;&gt;&amp;amp;&amp;amp;&lt;/span&gt;&lt;span style=&quot;color: #cdd3de;&quot;&gt; hour &lt;/span&gt;&lt;span style=&quot;color: #5fb3b3;&quot;&gt;&amp;lt;&lt;/span&gt;&lt;span style=&quot;color: #cdd3de;&quot;&gt; &lt;/span&gt;&lt;span style=&quot;color: #f99157;&quot;&gt;18&lt;/span&gt;&lt;span style=&quot;color: #5fb3b3;&quot;&gt;)&lt;/span&gt;&lt;/div&gt;&lt;/div&gt;" style="rounded=0;whiteSpace=wrap;html=1;" vertex="1" parent="1">
          <mxGeometry x="25" y="370" width="320" height="50" as="geometry" />
        </mxCell>
        <mxCell id="OIiy3n38Z5OrMYCdZU4e-66" style="edgeStyle=orthogonalEdgeStyle;rounded=0;orthogonalLoop=1;jettySize=auto;html=1;entryX=0.526;entryY=0.024;entryDx=0;entryDy=0;entryPerimeter=0;" edge="1" parent="1" source="OIiy3n38Z5OrMYCdZU4e-43" target="OIiy3n38Z5OrMYCdZU4e-63">
          <mxGeometry relative="1" as="geometry">
            <Array as="points">
              <mxPoint x="200" y="340" />
              <mxPoint x="200" y="371" />
            </Array>
          </mxGeometry>
        </mxCell>
        <mxCell id="OIiy3n38Z5OrMYCdZU4e-68" value="YES" style="whiteSpace=wrap;html=1;aspect=fixed;" vertex="1" parent="1">
          <mxGeometry x="372.5" y="372.5" width="47.5" height="47.5" as="geometry" />
        </mxCell>
        <mxCell id="OIiy3n38Z5OrMYCdZU4e-70" value="&lt;div style=&quot;color: #cdd3de;background-color: #1b2b34;font-family: Consolas, &#39;Courier New&#39;, monospace;font-weight: normal;font-size: 14px;line-height: 19px;white-space: pre;&quot;&gt;&lt;div&gt;&lt;span style=&quot;color: #5fb3b3;&quot;&gt;&quot;&lt;/span&gt;&lt;span style=&quot;color: #99c794;&quot;&gt;Good morning!&lt;/span&gt;&lt;span style=&quot;color: #5fb3b3;&quot;&gt;&quot;&lt;/span&gt;&lt;/div&gt;&lt;/div&gt;" style="rounded=0;whiteSpace=wrap;html=1;" vertex="1" parent="1">
          <mxGeometry x="500" y="196.88" width="147" height="40" as="geometry" />
        </mxCell>
        <mxCell id="OIiy3n38Z5OrMYCdZU4e-71" value="" style="endArrow=classic;html=1;rounded=0;exitX=1;exitY=0.5;exitDx=0;exitDy=0;entryX=0;entryY=0.5;entryDx=0;entryDy=0;" edge="1" parent="1" source="OIiy3n38Z5OrMYCdZU4e-14" target="OIiy3n38Z5OrMYCdZU4e-70">
          <mxGeometry width="50" height="50" relative="1" as="geometry">
            <mxPoint x="460" y="200" as="sourcePoint" />
            <mxPoint x="460" y="206" as="targetPoint" />
          </mxGeometry>
        </mxCell>
        <mxCell id="OIiy3n38Z5OrMYCdZU4e-72" value="" style="endArrow=classic;html=1;rounded=0;exitX=1;exitY=0.5;exitDx=0;exitDy=0;entryX=0;entryY=0.5;entryDx=0;entryDy=0;" edge="1" parent="1" source="OIiy3n38Z5OrMYCdZU4e-68" target="OIiy3n38Z5OrMYCdZU4e-30">
          <mxGeometry width="50" height="50" relative="1" as="geometry">
            <mxPoint x="439" y="216" as="sourcePoint" />
            <mxPoint x="470" y="216" as="targetPoint" />
          </mxGeometry>
        </mxCell>
        <mxCell id="OIiy3n38Z5OrMYCdZU4e-73" value="" style="edgeStyle=orthogonalEdgeStyle;rounded=0;orthogonalLoop=1;jettySize=auto;html=1;" edge="1" parent="1" target="OIiy3n38Z5OrMYCdZU4e-74">
          <mxGeometry relative="1" as="geometry">
            <mxPoint x="193" y="420" as="sourcePoint" />
          </mxGeometry>
        </mxCell>
        <mxCell id="OIiy3n38Z5OrMYCdZU4e-74" value="NO" style="whiteSpace=wrap;html=1;aspect=fixed;direction=south;" vertex="1" parent="1">
          <mxGeometry x="160" y="440" width="50" height="50" as="geometry" />
        </mxCell>
        <mxCell id="OIiy3n38Z5OrMYCdZU4e-75" style="edgeStyle=orthogonalEdgeStyle;rounded=0;orthogonalLoop=1;jettySize=auto;html=1;entryX=0.5;entryY=0;entryDx=0;entryDy=0;" edge="1" parent="1" target="OIiy3n38Z5OrMYCdZU4e-76">
          <mxGeometry relative="1" as="geometry">
            <mxPoint x="211.25" y="457.5" as="sourcePoint" />
          </mxGeometry>
        </mxCell>
        <mxCell id="OIiy3n38Z5OrMYCdZU4e-76" value="&lt;div style=&quot;color: #cdd3de;background-color: #1b2b34;font-family: Consolas, &#39;Courier New&#39;, monospace;font-weight: normal;font-size: 14px;line-height: 19px;white-space: pre;&quot;&gt;&lt;div&gt;&lt;span style=&quot;color: #c594c5;&quot;&gt;else&lt;/span&gt;&lt;span style=&quot;color: #cdd3de;&quot;&gt; &lt;/span&gt;&lt;span style=&quot;color: #c594c5;&quot;&gt;if&lt;/span&gt;&lt;/div&gt;&lt;/div&gt;" style="rounded=0;whiteSpace=wrap;html=1;" vertex="1" parent="1">
          <mxGeometry x="353.75" y="502.5" width="75" height="40" as="geometry" />
        </mxCell>
        <mxCell id="OIiy3n38Z5OrMYCdZU4e-93" style="edgeStyle=orthogonalEdgeStyle;rounded=0;orthogonalLoop=1;jettySize=auto;html=1;entryX=0;entryY=0.5;entryDx=0;entryDy=0;" edge="1" parent="1" source="OIiy3n38Z5OrMYCdZU4e-87" target="OIiy3n38Z5OrMYCdZU4e-88">
          <mxGeometry relative="1" as="geometry" />
        </mxCell>
        <mxCell id="OIiy3n38Z5OrMYCdZU4e-87" value="&#xa;&lt;div style=&quot;color: #cdd3de;background-color: #1b2b34;font-family: Consolas, &#39;Courier New&#39;, monospace;font-weight: normal;font-size: 14px;line-height: 19px;white-space: pre;&quot;&gt;&lt;div&gt;&lt;span style=&quot;color: #5fb3b3;&quot;&gt;(&lt;/span&gt;&lt;span style=&quot;color: #cdd3de;&quot;&gt;hour &lt;/span&gt;&lt;span style=&quot;color: #5fb3b3;&quot;&gt;&amp;gt;=&lt;/span&gt;&lt;span style=&quot;color: #cdd3de;&quot;&gt; &lt;/span&gt;&lt;span style=&quot;color: #f99157;&quot;&gt;18&lt;/span&gt;&lt;span style=&quot;color: #cdd3de;&quot;&gt; &lt;/span&gt;&lt;span style=&quot;color: #5fb3b3;&quot;&gt;&amp;amp;&amp;amp;&lt;/span&gt;&lt;span style=&quot;color: #cdd3de;&quot;&gt; hour &lt;/span&gt;&lt;span style=&quot;color: #5fb3b3;&quot;&gt;&amp;lt;&lt;/span&gt;&lt;span style=&quot;color: #cdd3de;&quot;&gt; &lt;/span&gt;&lt;span style=&quot;color: #f99157;&quot;&gt;22&lt;/span&gt;&lt;span style=&quot;color: #5fb3b3;&quot;&gt;)&lt;/span&gt;&lt;/div&gt;&lt;/div&gt;&#xa;&#xa;" style="rounded=0;whiteSpace=wrap;html=1;" vertex="1" parent="1">
          <mxGeometry x="20" y="560" width="320" height="50" as="geometry" />
        </mxCell>
        <mxCell id="OIiy3n38Z5OrMYCdZU4e-94" style="edgeStyle=orthogonalEdgeStyle;rounded=0;orthogonalLoop=1;jettySize=auto;html=1;exitX=1;exitY=0.5;exitDx=0;exitDy=0;entryX=0;entryY=0.5;entryDx=0;entryDy=0;" edge="1" parent="1" source="OIiy3n38Z5OrMYCdZU4e-88" target="OIiy3n38Z5OrMYCdZU4e-91">
          <mxGeometry relative="1" as="geometry" />
        </mxCell>
        <mxCell id="OIiy3n38Z5OrMYCdZU4e-88" value="YES" style="whiteSpace=wrap;html=1;aspect=fixed;" vertex="1" parent="1">
          <mxGeometry x="367.5" y="562.5" width="47.5" height="47.5" as="geometry" />
        </mxCell>
        <mxCell id="OIiy3n38Z5OrMYCdZU4e-91" value="&lt;div style=&quot;color: #cdd3de;background-color: #1b2b34;font-family: Consolas, &#39;Courier New&#39;, monospace;font-weight: normal;font-size: 14px;line-height: 19px;white-space: pre;&quot;&gt;&lt;div&gt;&lt;span style=&quot;color: #5fb3b3;&quot;&gt;&quot;&lt;/span&gt;&lt;span style=&quot;color: #99c794;&quot;&gt;Good evening!&lt;/span&gt;&lt;span style=&quot;color: #5fb3b3;&quot;&gt;&quot;&lt;/span&gt;&lt;/div&gt;&lt;/div&gt;" style="rounded=0;whiteSpace=wrap;html=1;" vertex="1" parent="1">
          <mxGeometry x="500" y="566.25" width="147" height="40" as="geometry" />
        </mxCell>
        <mxCell id="OIiy3n38Z5OrMYCdZU4e-92" style="edgeStyle=orthogonalEdgeStyle;rounded=0;orthogonalLoop=1;jettySize=auto;html=1;exitX=0;exitY=0.5;exitDx=0;exitDy=0;entryX=0.556;entryY=-0.048;entryDx=0;entryDy=0;entryPerimeter=0;" edge="1" parent="1" source="OIiy3n38Z5OrMYCdZU4e-76" target="OIiy3n38Z5OrMYCdZU4e-87">
          <mxGeometry relative="1" as="geometry" />
        </mxCell>
        <mxCell id="OIiy3n38Z5OrMYCdZU4e-95" value="" style="edgeStyle=orthogonalEdgeStyle;rounded=0;orthogonalLoop=1;jettySize=auto;html=1;" edge="1" parent="1" target="OIiy3n38Z5OrMYCdZU4e-97">
          <mxGeometry relative="1" as="geometry">
            <mxPoint x="194.25" y="610" as="sourcePoint" />
          </mxGeometry>
        </mxCell>
        <mxCell id="OIiy3n38Z5OrMYCdZU4e-96" style="edgeStyle=orthogonalEdgeStyle;rounded=0;orthogonalLoop=1;jettySize=auto;html=1;entryX=0.5;entryY=0;entryDx=0;entryDy=0;" edge="1" parent="1" source="OIiy3n38Z5OrMYCdZU4e-97" target="OIiy3n38Z5OrMYCdZU4e-98">
          <mxGeometry relative="1" as="geometry" />
        </mxCell>
        <mxCell id="OIiy3n38Z5OrMYCdZU4e-97" value="NO" style="whiteSpace=wrap;html=1;aspect=fixed;direction=south;" vertex="1" parent="1">
          <mxGeometry x="161.25" y="630" width="50" height="50" as="geometry" />
        </mxCell>
        <mxCell id="OIiy3n38Z5OrMYCdZU4e-105" style="edgeStyle=orthogonalEdgeStyle;rounded=0;orthogonalLoop=1;jettySize=auto;html=1;exitX=0.5;exitY=1;exitDx=0;exitDy=0;entryX=0.25;entryY=0;entryDx=0;entryDy=0;" edge="1" parent="1" source="OIiy3n38Z5OrMYCdZU4e-98" target="OIiy3n38Z5OrMYCdZU4e-101">
          <mxGeometry relative="1" as="geometry" />
        </mxCell>
        <mxCell id="OIiy3n38Z5OrMYCdZU4e-98" value="&lt;div style=&quot;color: #cdd3de;background-color: #1b2b34;font-family: Consolas, &#39;Courier New&#39;, monospace;font-weight: normal;font-size: 14px;line-height: 19px;white-space: pre;&quot;&gt;&lt;div&gt;&lt;span style=&quot;color: #c594c5;&quot;&gt;else&lt;/span&gt;&lt;/div&gt;&lt;/div&gt;" style="rounded=0;whiteSpace=wrap;html=1;" vertex="1" parent="1">
          <mxGeometry x="353.75" y="700" width="75" height="40" as="geometry" />
        </mxCell>
        <mxCell id="OIiy3n38Z5OrMYCdZU4e-106" style="edgeStyle=orthogonalEdgeStyle;rounded=0;orthogonalLoop=1;jettySize=auto;html=1;exitX=1;exitY=0.5;exitDx=0;exitDy=0;entryX=0;entryY=0.5;entryDx=0;entryDy=0;" edge="1" parent="1" source="OIiy3n38Z5OrMYCdZU4e-101" target="OIiy3n38Z5OrMYCdZU4e-102">
          <mxGeometry relative="1" as="geometry" />
        </mxCell>
        <mxCell id="OIiy3n38Z5OrMYCdZU4e-101" value="YES" style="whiteSpace=wrap;html=1;aspect=fixed;" vertex="1" parent="1">
          <mxGeometry x="381.25" y="772.5" width="47.5" height="47.5" as="geometry" />
        </mxCell>
        <mxCell id="OIiy3n38Z5OrMYCdZU4e-102" value="&lt;div style=&quot;color: #cdd3de;background-color: #1b2b34;font-family: Consolas, &#39;Courier New&#39;, monospace;font-weight: normal;font-size: 14px;line-height: 19px;white-space: pre;&quot;&gt;&lt;div&gt;&lt;span style=&quot;color: #5fb3b3;&quot;&gt;&quot;&lt;/span&gt;&lt;span style=&quot;color: #99c794;&quot;&gt;Good night!&lt;/span&gt;&lt;span style=&quot;color: #5fb3b3;&quot;&gt;&quot;&lt;/span&gt;&lt;/div&gt;&lt;/div&gt;" style="rounded=0;whiteSpace=wrap;html=1;" vertex="1" parent="1">
          <mxGeometry x="500" y="776.25" width="147" height="40" as="geometry" />
        </mxCell>
      </root>
    </mxGraphModel>
  </diagram>
</mxfile>
